<svg xmlns="http://www.w3.org/2000/svg" width="221.108" height="236.516" viewBox="0 0 221.108 236.516"><path d="M66.466,0C37.209,0,18.259,12.687,3.382,35.315a9.686,9.686,0,0,0,1.9,12.754l15.812,12.69A8.471,8.471,0,0,0,33.28,59.149c9.181-12.175,15.992-19.184,30.334-19.184,11.276,0,25.224,7.681,25.224,19.255,0,8.749-6.824,13.243-17.958,19.85C57.9,86.774,40.714,96.363,40.714,120.35v3.8a9.065,9.065,0,0,0,8.8,9.311H76.074a9.065,9.065,0,0,0,8.8-9.311v-2.24c0-16.628,45.915-17.321,45.915-62.317C130.787,25.7,97.578,0,66.466,0ZM62.793,144.887c-14,0-25.39,12.056-25.39,26.874s11.39,26.874,25.39,26.874,25.39-12.056,25.39-26.874S76.793,144.887,62.793,144.887Z" transform="matrix(0.809, -0.588, 0.588, 0.809, -1.456, 76.874)" fill="#fff"/></svg>